<?xml version="1.0" encoding="UTF-8" standalone="no"?>
<svg
   xmlns:dc="http://purl.org/dc/elements/1.1/"
   xmlns:cc="http://creativecommons.org/ns#"
   xmlns:rdf="http://www.w3.org/1999/02/22-rdf-syntax-ns#"
   xmlns:svg="http://www.w3.org/2000/svg"
   xmlns="http://www.w3.org/2000/svg"
   xmlns:sodipodi="http://sodipodi.sourceforge.net/DTD/sodipodi-0.dtd"
   xmlns:inkscape="http://www.inkscape.org/namespaces/inkscape"
   width="600"
   height="600"
   id="svg2"
   version="1.1"
   inkscape:version="0.48.0 r9654"
   sodipodi:docname="logo.svg"
   inkscape:export-filename="/home/christian/Development/cWatchTheHamster/img/logo.bmp.png"
   inkscape:export-xdpi="90"
   inkscape:export-ydpi="90">
  <metadata
     id="metadata16">
    <rdf:RDF>
      <cc:Work
         rdf:about="">
        <dc:format>image/svg+xml</dc:format>
        <dc:type
           rdf:resource="http://purl.org/dc/dcmitype/StillImage" />
        <dc:title />
      </cc:Work>
    </rdf:RDF>
  </metadata>
  <defs
     id="defs14" />
  <sodipodi:namedview
     pagecolor="#ffffff"
     bordercolor="#666666"
     borderopacity="1"
     objecttolerance="10"
     gridtolerance="10"
     guidetolerance="10"
     inkscape:pageopacity="0"
     inkscape:pageshadow="2"
     inkscape:window-width="1024"
     inkscape:window-height="600"
     id="namedview12"
     showgrid="true"
     inkscape:zoom="0.52371749"
     inkscape:cx="271.36904"
     inkscape:cy="245.81576"
     inkscape:window-x="-1"
     inkscape:window-y="-24"
     inkscape:window-maximized="0"
     inkscape:current-layer="svg2">
    <inkscape:grid
       type="xygrid"
       id="grid2984" />
  </sodipodi:namedview>
  <path
     style="fill:#020202;stroke:none"
     d="m 153.02678,313.6244 c 6.27638,18.13904 25.17277,18.17372 39.70992,20.34247 40.59013,6.05791 82.59881,2.51928 123.54193,7.11566 12.85828,1.44418 37.06368,9.34633 48.4141,0.12757 6.99997,-5.68509 4.68135,-16.42979 -1.09865,-21.97615 C 354.35491,310.36817 335.74861,304.36477 324,301.23859 L 324,300 c 18.71991,-0.4335 37.58101,-4.61371 56.2557,-6.29943 6.16055,-0.55611 15.05446,-3.80863 20.95801,-1.28936 22.4394,9.57301 35.15981,42.10187 56.2557,54.26104 4.81152,2.77318 11.30629,1.63245 16.54579,1.63245 l 36.40075,0 c -0.43019,-22.57935 -17.85953,-21.44605 -29.21656,-33.10481 -3.70075,-3.79874 -4.46075,-12.45271 -5.67191,-17.67704 -3.17237,-13.68263 -6.73413,-27.27482 -10.18227,-40.87321 -1.48803,-5.87211 -4.6615,-12.71776 -1.40971,-18.51061 7.57467,-13.49558 36.02019,-2.45239 47.5835,-1.5346 25.84012,2.04984 45.77119,-13.50673 63.97708,-31.75971 11.3835,-11.41477 22.71999,-22.64006 17.65058,-40.44139 -18.18702,-65.43696 -89.67842,-65.9773 -119.01297,-90.79694 -7.95632,-7.09027 -66.89787,9.22302 -100.58166,10.72743 -7.24983,0.3238 -14.51142,-0.45058 -21.76802,-0.36979 -11.47993,0.12782 -22.95729,0.63258 -34.41539,1.3516 -13.1151,0.823 -26.23252,1.79814 -39.2767,3.38956 -12.17738,1.48567 -24.47889,2.6578 -36.35198,5.74412 -14.1225,3.67103 -27.449,9.91511 -41.09276,15.08902 -6.82241,2.58716 -13.63028,5.21599 -20.38421,7.97699 -7.93402,3.24343 -16.03254,6.16339 -23.65286,10.08757 -6.12322,3.15323 -12.15854,6.58999 -17.63704,10.76404 -10.16609,7.74551 -20.03189,16.21572 -27.94472,26.25213 -7.59546,9.63388 -12.946,20.89876 -18.244018,31.96373 -4.627317,9.6642 -8.310011,19.77211 -11.757362,29.91728 -3.035427,8.93293 -5.893682,17.96458 -7.840066,27.19619 -1.989838,9.43771 1.92381,20.97825 -3.892242,28.67262 -7.676681,10.1559 1.94633,15.26366 -35.008696,15.26614 -12.381878,8.3e-4 -23.934579,3.48802 -26.8894284,22.97215 -1.876422,61.77702 112.8877924,12.98078 145.6302424,-6.98277 z"
     id="path6"
     inkscape:connector-curvature="0"
     sodipodi:nodetypes="ccccsccscsscccccccccaaaaaaaaaaaaaaccc" />
  <path
     style="fill:#fefefe;stroke:none"
     d="m 530.70498,148.3208 c -12.51744,5.42623 -5.02551,25.5569 7.68386,19.79007 11.30409,-5.13021 3.02237,-24.42856 -7.68386,-19.79007"
     id="path8"
     inkscape:connector-curvature="0"
     sodipodi:nodetypes="ccc" />
  <path
     style="fill:#020202;stroke:none"
     d="m 262.0532,436.75027 -2.20611,0 -7.00439,-39.22358 -4.36036,-14.88029 -12.90242,-1.04886 -11.70339,4.76349 -23.5943,51.84197 0,-50.84539 c 0,-5.07147 1.25196,-14.05949 -1.76819,-18.00798 -4.93837,-6.45302 -21.64632,-0.0916 -23.83478,7.90282 -5.96861,21.80251 -7.03636,48.30021 -10.16241,71.11962 -1.76158,12.85227 -5.75133,27.53786 -4.97919,40.65453 0.36731,6.21766 3.19775,8.30522 7.65409,8.67421 10.58048,0.87745 33.88358,5.20366 42.90214,-2.63523 10.4062,-9.04469 14.1985,-42.07094 18.86772,-56.86258 7.21617,14.33839 1.60163,46.12985 11.50484,56.6432 7.73241,8.20792 29.65889,2.97954 39.2356,2.91709 3.74486,-0.0231 8.56079,0.38495 11.31952,-3.6507 4.66481,-6.82636 3.79451,-23.97142 4.16183,-32.66599 0.95524,-22.58407 2.6054,-45.85382 4.8413,-68.27808 0.84824,-8.49554 4.05703,-25.01449 1.07326,-32.94928 -1.93144,-5.13685 -8.1295,-2.18635 -11.46844,-1.9728 -16.56234,1.06048 -15.78248,18.56147 -19.16334,36.3748 -2.68262,14.12775 -4.99131,28.27584 -8.41298,42.12903 m 98.17171,-40.67632 -27.57632,100.23806 c 11.15958,3.49961 23.86676,1.45273 35.2977,1.45273 3.63566,0 9.58442,1.41641 12.42258,-2.32873 4.14748,-5.47532 3.73824,-19.47959 4.5909,-26.72578 2.64512,-22.45914 3.80223,-46.23879 8.00817,-68.27229 2.21493,-11.60291 34.15162,-14.83087 21.27568,-35.42615 -3.01905,-4.82887 -15.60048,-0.016 -19.82406,0.43 -12.22956,1.29437 -34.53659,-1.02562 -45.10936,7.37114 -3.44593,2.73691 -11.33165,18.63846 -5.2759,22.36325 4.27213,2.62797 11.2721,-0.64065 16.19061,0.89777 m 185.3129,-32.79672 c -5.59799,0.96751 -14.84488,-1.33215 -19.0409,4.69086 -5.73257,8.22823 -0.95965,23.32786 -6.17268,31.83937 -3.11392,5.08454 -10.99854,5.69613 -15.59497,6.34986 -14.48198,2.06288 0.58904,-28.66809 -3.38747,-37.22172 -2.5988,-5.59008 -13.32047,-2.03528 -17.57495,-1.89435 -3.7967,0.12492 -8.65013,0.34283 -11.69898,3.73931 -5.28913,5.88934 -7.41361,19.9372 -9.92085,28.19885 -6.88746,22.69156 -13.42416,45.57925 -20.29617,68.2781 -1.59061,5.25305 -10.59813,25.97037 -5.14795,29.63123 7.85043,5.27194 25.03268,0.88181 33.82732,0.876 3.65331,-9.7e-4 8.4207,0.95589 10.93236,-3.36741 7.70372,-13.25904 1.71525,-39.82066 11.46293,-51.01683 3.09847,-3.55771 7.9497,-3.66522 11.79935,-4.61239 2.9606,-0.72927 6.80253,-2.58586 9.76423,-1.08373 4.70672,2.38682 2.73998,10.11968 2.46753,15.04586 -0.65742,11.87458 -4.5523,28.93103 -1.95351,40.4613 1.31925,5.8545 7.04961,4.57175 10.67976,4.5732 10.50217,0.006 25.07018,3.47346 35.13444,-0.46198 7.2261,-2.82554 2.65284,-27.17031 2.41238,-34.40344 -0.78868,-23.72445 -1.45713,-47.54479 -3.16466,-71.18354 -0.55815,-7.71397 1.49244,-19.05976 -2.32523,-25.68708 -2.71241,-4.70828 -8.35122,-3.41681 -12.20198,-2.75147 M 119.75937,455.6357 c -6.70988,-0.37918 -15.15265,-0.79174 -20.909475,-5.80364 -8.525499,-7.42198 -6.435209,-23.73753 1.10195,-31.02004 6.867595,-6.63605 17.705095,-0.83969 23.405675,-6.79876 3.19444,-3.33981 5.83184,-22.4112 2.35391,-26.06772 -8.12619,-8.54201 -32.199211,3.43861 -40.146705,8.359 -8.386514,5.19059 -16.696912,11.66538 -23.049392,20.67664 -13.054632,18.51643 -17.028941,55.53479 -1.173649,73.58925 7.698208,8.76429 18.846758,10.47851 28.635256,10.65284 6.677885,0.11912 19.0817,4.62983 24.55175,-2.53647 5.22957,-6.85104 5.08287,-31.65052 5.23068,-41.0511 z"
     id="path10"
     inkscape:connector-curvature="0" />
</svg>
